#!OML:ASF F:\VICON\USERDATA\INSTALL\rory3\rory3.ASF
:FULLY-SPECIFIED
:DEGREES
211
root 4.27918 17.5437 2.97128 19.5138 -19.1007 -4.09382
lowerback -6.50321 4.19372 4.34705
upperback -8.95699 5.45275 0.14327
thorax -5.33132 2.45941 -2.15266
lowerneck -10.7424 5.20686 2.16715
upperneck 34.7658 5.35685 5.03901
head 13.4088 3.27633 2.37455
rclavicle -3.78498e-014 -5.46658e-015
rhumerus 21.5342 -19.6653 -15.4748
rradius 114.125
rwrist -56.7131
rhand -7.95618 -47.7988
rfingers 7.12502
rthumb 17.951 -76.9904
lclavicle -3.78498e-014 -5.46658e-015
lhumerus 36.7189 29.0187 -3.45904
lradius 48.8661
lwrist 48.73
lhand -29.1948 -21.808
lfingers 7.12502
lthumb -2.53982 8.15667
rfemur -14.9693 0.44405 -1.75179
rtibia 17.55
rfoot -21.0953 -27.2574
rtoes 46.8655
lfemur -28.2658 1.72732 -24.983
ltibia 24.6847
lfoot -13.4062 12.0532
ltoes 11.0157
212
root 4.28188 17.5399 2.94408 19.6095 -19.0892 -3.90666
lowerback -6.44237 4.13186 4.01616
upperback -9.08992 5.38452 0.110765
thorax -5.53648 2.43693 -2.0181
lowerneck -11.0057 5.02018 1.96675
upperneck 35.3127 5.07892 5.13004
head 13.7035 3.13871 2.44248
rclavicle 3.33523e-014 -1.22253e-014
rhumerus 21.6512 -19.1795 -15.6942
rradius 114.022
rwrist -56.5299
rhand -8.07196 -47.8242
rfingers 7.12502
rthumb 17.8396 -77.026
lclavicle 3.33523e-014 -1.22253e-014
lhumerus 36.8688 28.7519 -3.20898
lradius 49.2196
lwrist 49.0011
lhand -28.8331 -21.6534
lfingers 7.12502
lthumb -2.19052 8.31511
rfemur -15.3853 0.159911 -1.8959
rtibia 17.8933
rfoot -21.2987 -27.1143
rtoes 47.0824
lfemur -28.5916 1.71345 -25.1722
ltibia 24.7693
lfoot -13.31 11.9516
ltoes 11.2581
213
root 4.28452 17.5336 2.92448 19.6044 -19.1722 -3.6388
lowerback -6.47073 4.05657 3.63412
upperback -9.0388 5.28813 0.0420921
thorax -5.49455 2.41129 -1.87791
lowerneck -11.1507 4.95004 2.13108
upperneck 35.4015 5.03207 4.81652
head 13.7952 3.09618 2.29296
rclavicle 2.35498e-014 2.98177e-015
rhumerus 21.8758 -18.8996 -15.8739
rradius 114.022
rwrist -56.38
rhand -8.63338 -47.8296
rfingers 7.12502
rthumb 17.2993 -77.0797
lclavicle 2.35498e-014 2.98177e-015
lhumerus 36.9938 28.7193 -3.04036
lradius 49.5455
lwrist 49.2383
lhand -29.7314 -21.7334
lfingers 7.12502
lthumb -3.05807 8.22445
rfemur -15.7847 -0.211188 -2.12965
rtibia 18.3
rfoot -21.9871 -26.4935
rtoes 47.9267
lfemur -28.79 1.69815 -25.4614
ltibia 24.8464
lfoot -13.2788 11.9016
ltoes 11.2775
214
root 4.28805 17.5306 2.91299 19.5381 -19.1414 -3.60292
lowerback -6.52386 3.95903 3.56704
upperback -8.86603 5.15255 0.0282728
thorax -5.28963 2.35375 -1.84734
lowerneck -11.0069 4.98429 2.11758
upperneck 35.1978 5.13021 4.70618
head 13.6727 3.12118 2.24977
rclavicle 5.97907e-015 -2.38542e-015
rhumerus 22.2774 -18.7208 -16.2694
rradius 113.94
rwrist -56.2102
rhand -8.5385 -47.9574
rfingers 7.12502
rthumb 17.3906 -77.1994
lclavicle 5.97907e-015 -2.38542e-015
lhumerus 37.3794 29.032 -2.48378
lradius 49.7553
lwrist 49.0938
lhand -30.0507 -21.7191
lfingers 7.12502
lthumb -3.36641 8.23406
rfemur -16.0286 -0.590518 -2.05953
rtibia 18.7373
rfoot -22.3314 -26.1545
rtoes 48.217
lfemur -28.8056 1.63571 -25.4812
ltibia 24.9076
lfoot -13.2356 11.8897
ltoes 11.0146
215
root 4.29616 17.5277 2.89581 19.4313 -18.9493 -3.57667
lowerback -6.3308 3.84912 3.54204
upperback -8.86031 5.0175 0.0581893
thorax -5.40336 2.28606 -1.8203
lowerneck -10.4938 4.95623 1.94307
upperneck 35.0114 5.15574 4.6902
head 13.4683 3.10684 2.24752
rclavicle -2.55035e-014 -3.08116e-015
rhumerus 22.5512 -18.4092 -16.6703
rradius 113.887
rwrist -56.0549
rhand -8.24124 -48.0355
rfingers 7.12502
rthumb 17.6767 -77.252
lclavicle -2.55035e-014 -3.08116e-015
lhumerus 37.7251 28.9709 -1.90354
lradius 49.973
lwrist 49.1436
lhand -29.6197 -22.2069
lfingers 7.12502
lthumb -2.95022 7.75244
rfemur -16.1201 -1.03379 -1.94908
rtibia 19.1018
rfoot -21.1828 -26.9583
rtoes 46.9641
lfemur -28.7907 1.4688 -25.4603
ltibia 24.9687
lfoot -13.1812 11.8806
ltoes 10.8622
216
root 4.30651 17.5227 2.87583 19.2413 -18.8309 -3.35528
lowerback -6.08703 3.75675 3.32278
upperback -8.84729 4.91078 0.0414393
thorax -5.54639 2.24227 -1.73655
lowerneck -10.1772 4.80251 1.75329
upperneck 34.9213 5.01279 4.60379
head 13.3565 3.00713 2.20941
rclavicle -2.26583e-014 -2.29596e-014
rhumerus 22.7497 -18.1027 -16.9026
rradius 113.841
rwrist -56.0716
rhand -8.25766 -47.9422
rfingers 7.12502
rthumb 17.6609 -77.1602
lclavicle -2.26583e-014 -2.29596e-014
lhumerus 37.8754 28.6975 -1.57269
lradius 50.2765
lwrist 49.3797
lhand -29.8878 -23.134
lfingers 7.12502
lthumb -3.2091 6.82155
rfemur -16.173 -1.58752 -2.06121
rtibia 19.3969
rfoot -18.7912 -28.3324
rtoes 44.628
lfemur -28.7681 1.29311 -25.6628
ltibia 25.0598
lfoot -13.1649 11.907
ltoes 10.9708
217
root 4.31151 17.5206 2.85369 19.1535 -18.9289 -3.29506
lowerback -5.86999 3.71336 3.12212
upperback -8.79112 4.86688 0.0608614
thorax -5.62648 2.23198 -1.61991
lowerneck -10.1406 4.61796 1.39622
upperneck 34.9367 4.78006 4.7311
head 13.3407 2.87344 2.28715
rclavicle 3.45854e-014 1.32192e-014
rhumerus 23.0769 -17.7039 -17.1735
rradius 113.65
rwrist -55.9582
rhand -8.20525 -47.7953
rfingers 7.12502
rthumb 17.7113 -77.0087
lclavicle 3.45854e-014 1.32192e-014
lhumerus 37.8988 28.581 -1.37487
lradius 50.6945
lwrist 49.6287
lhand -30.7597 -23.5996
lfingers 7.12502
lthumb -4.05105 6.34161
rfemur -16.4493 -1.84982 -2.04902
rtibia 19.7155
rfoot -18.0699 -28.7451
rtoes 43.7742
lfemur -28.8331 1.30145 -25.7245
ltibia 25.1575
lfoot -13.131 11.9467
ltoes 11.2022
218
root 4.31519 17.5212 2.83121 19.2223 -19.0563 -3.50761
lowerback -5.70779 3.7057 3.1688
upperback -8.68364 4.86373 0.122589
thorax -5.60399 2.23133 -1.58858
lowerneck -10.4962 4.50229 1.13039
upperneck 35.1489 4.59507 4.91715
head 13.5001 2.77998 2.40282
rclavicle -2.03475e-014 -5.26779e-015
rhumerus 23.4885 -17.4631 -17.5998
rradius 113.439
rwrist -55.7155
rhand -7.97968 -47.6788
rfingers 7.12502
rthumb 17.9284 -76.8724
lclavicle -2.03475e-014 -5.26779e-015
lhumerus 38.0246 28.7126 -1.07022
lradius 51.122
lwrist 49.9696
lhand -31.1607 -23.0901
lfingers 7.12502
lthumb -4.43829 6.84335
rfemur -16.8899 -1.86953 -1.76846
rtibia 20.0544
rfoot -18.2315 -28.9256
rtoes 43.5265
lfemur -28.9761 1.35417 -25.4964
ltibia 25.2369
lfoot -13.0599 12.0178
ltoes 11.1916
219
root 4.32127 17.5217 2.80822 19.2497 -19.0889 -3.67098
lowerback -5.47983 3.70314 3.24934
upperback -8.60136 4.86854 0.124937
thorax -5.63765 2.22932 -1.64289
lowerneck -10.8932 4.46605 1.22412
upperneck 35.4275 4.51818 4.87015
head 13.72 2.75073 2.38474
rclavicle -1.30452e-015 8.19987e-015
rhumerus 23.7603 -17.4358 -18.0398
rradius 113.332
rwrist -55.7896
rhand -7.9014 -47.6606
rfingers 7.12502
rthumb 18.0037 -76.8473
lclavicle -1.30452e-015 8.19987e-015
lhumerus 38.207 28.7252 -0.833025
lradius 51.5514
lwrist 50.3424
lhand -30.4508 -21.9382
lfingers 7.12502
lthumb -3.75277 8.00848
rfemur -17.2535 -1.95333 -1.52988
rtibia 20.3859
rfoot -17.6172 -29.5346
rtoes 42.7054
lfemur -29.0868 1.33021 -25.3088
ltibia 25.3094
lfoot -12.9836 12.1107
ltoes 11.0211
220
root 4.32514 17.522 2.78386 19.1906 -19.1531 -3.67944
lowerback -5.1166 3.70766 3.12954
upperback -8.6757 4.89396 0.10027
thorax -5.92836 2.24145 -1.6311
lowerneck -10.7378 4.4589 1.39112
upperneck 35.5684 4.53073 4.68339
head 13.7613 2.75215 2.28413
rclavicle -2.45157e-014 -6.70898e-015
rhumerus 23.7452 -17.1652 -18.2585
rradius 113.271
rwrist -56.0411
rhand -8.13762 -47.5483
rfingers 7.12502
rthumb 17.7764 -76.7558
lclavicle -2.45157e-014 -6.70898e-015
lhumerus 37.8723 28.0594 -1.3522
lradius 52.2912
lwrist 51.4056
lhand -31.7748 -23.2936
lfingers 7.12502
lthumb -5.03127 6.62666
rfemur -17.5687 -2.05448 -1.45861
rtibia 20.739
rfoot -16.2587 -30.3404
rtoes 41.4077
lfemur -29.1639 1.29202 -25.2731
ltibia 25.3717
lfoot -12.9296 12.2167
ltoes 11.2558
